<svg id="visual" viewBox="0 0 300 300" width="55" height="55" xmlns="http://www.w3.org/2000/svg" xmlns:xlink="http://www.w3.org/1999/xlink" version="1.1"><g transform="translate(161.99926052400355 133.19725381005395)"><path d="M46.1 -69.7C56.6 -65.1 59.7 -46.9 62.3 -31.3C64.9 -15.8 67.1 -2.9 72.4 15.5C77.7 33.9 86.1 57.9 79 71.4C71.9 85 49.3 88.1 27.5 95.2C5.6 102.3 -15.5 113.5 -38.8 114.7C-62.2 115.9 -87.8 107.1 -93.6 88C-99.3 68.9 -85.3 39.6 -87.3 13.6C-89.4 -12.3 -107.4 -34.8 -105.6 -52.1C-103.7 -69.3 -81.9 -81.4 -60.9 -81.2C-40 -81 -20 -68.6 -1.1 -67C17.8 -65.3 35.7 -74.3 46.1 -69.7" fill="#ff0050"></path></g></svg>