<svg id="visual" viewBox="0 0 900 600" width="900" height="600" xmlns="http://www.w3.org/2000/svg" xmlns:xlink="http://www.w3.org/1999/xlink" version="1.1"><g transform="translate(46.51215820997439 599.6449336671576)"><path d="M89 -191.4C121.8 -135.3 159.2 -124.4 199.8 -100C240.4 -75.7 284.2 -37.8 282.3 -1.1C280.4 35.7 232.9 71.3 215.1 135.1C197.2 198.9 209.1 290.9 178.2 342.9C147.3 394.9 73.7 406.9 20.8 370.8C-32 334.8 -64 250.5 -117.8 211.8C-171.7 173 -247.4 179.8 -300.7 152C-354 124.3 -385 62.2 -372.7 7.1C-360.5 -48 -304.9 -96 -267.6 -151.4C-230.3 -206.9 -211.1 -269.7 -169.6 -320.7C-128 -371.7 -64 -410.9 -17.9 -379.8C28.1 -348.7 56.3 -247.4 89 -191.4" fill="#ff0050"></path></g></svg>