<svg id="visual" viewBox="0 0 900 600" width="900" height="600" xmlns="http://www.w3.org/2000/svg" xmlns:xlink="http://www.w3.org/1999/xlink" version="1.1"><g transform="translate(913.859946843214 -2.655814876481003)"><path d="M170.7 -323.6C197.6 -280 179.8 -186.8 194 -124.5C208.3 -62.3 254.6 -31.2 289 19.8C323.4 70.8 345.7 141.7 333 206.6C320.4 271.6 272.7 330.6 211.3 350.9C150 371.1 75 352.6 18.5 320.5C-38 288.5 -76 243 -103.7 203.3C-131.4 163.6 -148.9 129.8 -204.2 96.9C-259.5 64 -352.8 32 -363.3 -6.1C-373.8 -44.2 -301.7 -88.3 -241.4 -112.7C-181.1 -137.1 -132.8 -141.6 -94.5 -178.7C-56.3 -215.8 -28.1 -285.4 21.9 -323.2C71.8 -361.1 143.7 -367.2 170.7 -323.6" fill="#ff0050"></path></g></svg>